<svg id="Calque_1" data-name="Calque 1" xmlns="http://www.w3.org/2000/svg" viewBox="0 0 197.52 25.03"><defs><style>.cls-1{isolation:isolate;}.cls-2{fill:#09073a;}.cls-3,.cls-5{fill:none;}.cls-3{stroke:#09073a;}.cls-4{fill:#7510f7;}.cls-5{stroke:#7510f7;}</style></defs><title>logo</title><g id="Groupe_1" data-name="Groupe 1"><g id="Creativ_" data-name="Creativ " class="cls-1"><g class="cls-1"><path class="cls-2" d="M72.92,13.41A5.43,5.43,0,0,1,78.36,8H88.92v2.34a.42.42,0,0,1-.42.41H78.36a2.43,2.43,0,0,0-2.43,2.43V26.82a2.43,2.43,0,0,0,2.43,2.43H88.5a.42.42,0,0,1,.42.41V32H78.36a5.45,5.45,0,0,1-5.44-5.44Z" transform="translate(-1.08 -7.47)"/><path class="cls-2" d="M104.21,16v2.3a.36.36,0,0,1-.35.36h-4a1.53,1.53,0,0,0-1.53,1.44V32H95.9a.36.36,0,0,1-.36-.35V16H98a.33.33,0,0,1,.35.32V17a2.66,2.66,0,0,1,2.17-1Z" transform="translate(-1.08 -7.47)"/><path class="cls-2" d="M110,27.33V20.55A4.33,4.33,0,0,1,114.68,16H119a4.33,4.33,0,0,1,4.67,4.55v3.67c0,.55-.07,1-.83,1H114a1.55,1.55,0,0,1-1.25-.61v2.85a1.87,1.87,0,0,0,1.89,1.88h7.94a.36.36,0,0,1,.35.36V32h-8.29A4.66,4.66,0,0,1,110,27.33Zm2.78-6.82v1.73a.35.35,0,0,0,.32.35h7.46a.35.35,0,0,0,.35-.35V20.51a1.64,1.64,0,0,0-1.86-1.88h-4.38A1.74,1.74,0,0,0,112.79,20.51Z" transform="translate(-1.08 -7.47)"/><path class="cls-2" d="M143.25,20.48V31a1,1,0,0,1-1,1h-7.49a4.66,4.66,0,0,1-4.67-4.67v-1a4.65,4.65,0,0,1,4.67-4.67h5.41a.36.36,0,0,0,.35-.36v-.8a1.8,1.8,0,0,0-1.92-1.88h-6.37a.36.36,0,0,1-.35-.36V16h6.72C141.17,16,143.25,17.57,143.25,20.48Zm-8.51,8.8h5.44a.32.32,0,0,0,.32-.35V23.84a1,1,0,0,1-.83.48h-4.93a1.87,1.87,0,0,0-1.88,1.89v1.18A1.87,1.87,0,0,0,134.74,29.28Z" transform="translate(-1.08 -7.47)"/><path class="cls-2" d="M158.13,29.7V32H154.9a4.68,4.68,0,0,1-4.67-4.67V8.26h2.43a.36.36,0,0,1,.36.35v8a1,1,0,0,1,.92-.58h3.39v2.31a.33.33,0,0,1-.35.32h-4v8.8a1.87,1.87,0,0,0,1.88,1.88h2.88A.36.36,0,0,1,158.13,29.7Z" transform="translate(-1.08 -7.47)"/><path class="cls-2" d="M167,9.19v2.62H164.6a.35.35,0,0,1-.35-.35V8.83h2.43A.36.36,0,0,1,167,9.19Zm0,7.13V32H164.6a.35.35,0,0,1-.35-.35V16h2.43A.33.33,0,0,1,167,16.32Z" transform="translate(-1.08 -7.47)"/><path class="cls-2" d="M172.6,16h2.72a.44.44,0,0,1,.38.29l4.45,11.36,4.45-11.36A.45.45,0,0,1,185,16h2.72l-6.56,15.77a.41.41,0,0,1-.38.26h-1.31a.43.43,0,0,1-.39-.26Z" transform="translate(-1.08 -7.47)"/></g><g class="cls-1"><path class="cls-3" d="M72.92,13.41A5.43,5.43,0,0,1,78.36,8H88.92v2.34a.42.42,0,0,1-.42.41H78.36a2.43,2.43,0,0,0-2.43,2.43V26.82a2.43,2.43,0,0,0,2.43,2.43H88.5a.42.42,0,0,1,.42.41V32H78.36a5.45,5.45,0,0,1-5.44-5.44Z" transform="translate(-1.08 -7.47)"/><path class="cls-3" d="M104.21,16v2.3a.36.36,0,0,1-.35.36h-4a1.53,1.53,0,0,0-1.53,1.44V32H95.9a.36.36,0,0,1-.36-.35V16H98a.33.33,0,0,1,.35.32V17a2.66,2.66,0,0,1,2.17-1Z" transform="translate(-1.08 -7.47)"/><path class="cls-3" d="M110,27.33V20.55A4.33,4.33,0,0,1,114.68,16H119a4.33,4.33,0,0,1,4.67,4.55v3.67c0,.55-.07,1-.83,1H114a1.55,1.55,0,0,1-1.25-.61v2.85a1.87,1.87,0,0,0,1.89,1.88h7.94a.36.36,0,0,1,.35.36V32h-8.29A4.66,4.66,0,0,1,110,27.33Zm2.78-6.82v1.73a.35.35,0,0,0,.32.35h7.46a.35.35,0,0,0,.35-.35V20.51a1.64,1.64,0,0,0-1.86-1.88h-4.38A1.74,1.74,0,0,0,112.79,20.51Z" transform="translate(-1.08 -7.47)"/><path class="cls-3" d="M143.25,20.48V31a1,1,0,0,1-1,1h-7.49a4.66,4.66,0,0,1-4.67-4.67v-1a4.65,4.65,0,0,1,4.67-4.67h5.41a.36.36,0,0,0,.35-.36v-.8a1.8,1.8,0,0,0-1.92-1.88h-6.37a.36.36,0,0,1-.35-.36V16h6.72C141.17,16,143.25,17.57,143.25,20.48Zm-8.51,8.8h5.44a.32.32,0,0,0,.32-.35V23.84a1,1,0,0,1-.83.48h-4.93a1.87,1.87,0,0,0-1.88,1.89v1.18A1.87,1.87,0,0,0,134.74,29.28Z" transform="translate(-1.08 -7.47)"/><path class="cls-3" d="M158.13,29.7V32H154.9a4.68,4.68,0,0,1-4.67-4.67V8.26h2.43a.36.36,0,0,1,.36.35v8a1,1,0,0,1,.92-.58h3.39v2.31a.33.33,0,0,1-.35.32h-4v8.8a1.87,1.87,0,0,0,1.88,1.88h2.88A.36.36,0,0,1,158.13,29.7Z" transform="translate(-1.08 -7.47)"/><path class="cls-3" d="M167,9.19v2.62H164.6a.35.35,0,0,1-.35-.35V8.83h2.43A.36.36,0,0,1,167,9.19Zm0,7.13V32H164.6a.35.35,0,0,1-.35-.35V16h2.43A.33.33,0,0,1,167,16.32Z" transform="translate(-1.08 -7.47)"/><path class="cls-3" d="M172.6,16h2.72a.44.44,0,0,1,.38.29l4.45,11.36,4.45-11.36A.45.45,0,0,1,185,16h2.72l-6.56,15.77a.41.41,0,0,1-.38.26h-1.31a.43.43,0,0,1-.39-.26Z" transform="translate(-1.08 -7.47)"/></g></g><g id="Tela" class="cls-1"><g class="cls-1"><path class="cls-4" d="M19,8v2.34a.42.42,0,0,1-.41.41H11.75V31.58a.4.4,0,0,1-.41.42H8.74V10.72H1.58V8.39A.42.42,0,0,1,2,8Z" transform="translate(-1.08 -7.47)"/><path class="cls-4" d="M21.35,27.33V20.55A4.33,4.33,0,0,1,26,16h4.29A4.33,4.33,0,0,1,35,20.55v3.67c0,.55-.06,1-.83,1H25.38a1.52,1.52,0,0,1-1.24-.61v2.85A1.87,1.87,0,0,0,26,29.34H34a.36.36,0,0,1,.35.36V32H26A4.66,4.66,0,0,1,21.35,27.33Zm2.79-6.82v1.73a.34.34,0,0,0,.32.35h7.45a.35.35,0,0,0,.35-.35V20.51c0-1.28-.6-1.88-1.85-1.88H26A1.74,1.74,0,0,0,24.14,20.51Z" transform="translate(-1.08 -7.47)"/><path class="cls-4" d="M44.81,8.35V32H42.38a.36.36,0,0,1-.36-.35V8h2.44A.35.35,0,0,1,44.81,8.35Z" transform="translate(-1.08 -7.47)"/><path class="cls-4" d="M64.52,20.48V31a1,1,0,0,1-1,1H56a4.66,4.66,0,0,1-4.67-4.67v-1A4.65,4.65,0,0,1,56,21.67h5.4a.36.36,0,0,0,.36-.36v-.8a1.8,1.8,0,0,0-1.92-1.88H53.48a.36.36,0,0,1-.35-.36V16h6.72C62.44,16,64.52,17.57,64.52,20.48ZM56,29.28h5.44a.33.33,0,0,0,.32-.35V23.84a1,1,0,0,1-.84.48H56a1.87,1.87,0,0,0-1.89,1.89v1.18A1.87,1.87,0,0,0,56,29.28Z" transform="translate(-1.08 -7.47)"/></g><g class="cls-1"><path class="cls-5" d="M19,8v2.34a.42.42,0,0,1-.41.41H11.75V31.58a.4.4,0,0,1-.41.42H8.74V10.72H1.58V8.39A.42.42,0,0,1,2,8Z" transform="translate(-1.08 -7.47)"/><path class="cls-5" d="M21.35,27.33V20.55A4.33,4.33,0,0,1,26,16h4.29A4.33,4.33,0,0,1,35,20.55v3.67c0,.55-.06,1-.83,1H25.38a1.52,1.52,0,0,1-1.24-.61v2.85A1.87,1.87,0,0,0,26,29.34H34a.36.36,0,0,1,.35.36V32H26A4.66,4.66,0,0,1,21.35,27.33Zm2.79-6.82v1.73a.34.34,0,0,0,.32.35h7.45a.35.35,0,0,0,.35-.35V20.51c0-1.28-.6-1.88-1.85-1.88H26A1.74,1.74,0,0,0,24.14,20.51Z" transform="translate(-1.08 -7.47)"/><path class="cls-5" d="M44.81,8.35V32H42.38a.36.36,0,0,1-.36-.35V8h2.44A.35.35,0,0,1,44.81,8.35Z" transform="translate(-1.08 -7.47)"/><path class="cls-5" d="M64.52,20.48V31a1,1,0,0,1-1,1H56a4.66,4.66,0,0,1-4.67-4.67v-1A4.65,4.65,0,0,1,56,21.67h5.4a.36.36,0,0,0,.36-.36v-.8a1.8,1.8,0,0,0-1.92-1.88H53.48a.36.36,0,0,1-.35-.36V16h6.72C62.44,16,64.52,17.57,64.52,20.48ZM56,29.28h5.44a.33.33,0,0,0,.32-.35V23.84a1,1,0,0,1-.84.48H56a1.87,1.87,0,0,0-1.89,1.89v1.18A1.87,1.87,0,0,0,56,29.28Z" transform="translate(-1.08 -7.47)"/></g></g><g id="_" data-name=" " class="cls-1"><g class="cls-1"><path class="cls-4" d="M198.1,8.45V12l-2.66,1.06V8h2.21A.44.44,0,0,1,198.1,8.45Z" transform="translate(-1.08 -7.47)"/></g><g class="cls-1"><path class="cls-5" d="M198.1,8.45V12l-2.66,1.06V8h2.21A.44.44,0,0,1,198.1,8.45Z" transform="translate(-1.08 -7.47)"/></g></g></g></svg>