<?xml version="1.0" encoding="utf-8"?>
<!-- Generator: Adobe Illustrator 23.0.2, SVG Export Plug-In . SVG Version: 6.00 Build 0)  -->
<svg version="1.1" id="Calque_1" xmlns="http://www.w3.org/2000/svg" xmlns:xlink="http://www.w3.org/1999/xlink" x="0px" y="0px"
	 viewBox="0 0 202 41" style="enable-background:new 0 0 202 41;" xml:space="preserve">
<style type="text/css">
	.st0{enable-background:new    ;}
	.st1{fill:#5B005C;}
	.st2{fill:#09073A;}
	.st3{fill:#5B005C;stroke:#5B005C;stroke-miterlimit:10;}
	.st4{fill:#5B005C;stroke:#5B005C;stroke-width:0.75;}
	.st5{fill:none;stroke:#5B005C;}
	.st6{fill:#7510F7;}
	.st7{fill:none;stroke:#7510F7;}
</style>
<g id="Groupe_1" transform="translate(-359 -425)">
	<g class="st0">
		<path class="st1" d="M431.9,438.4c0-3,2.4-5.4,5.4-5.4h10.6v2.3c0,0.2-0.2,0.4-0.4,0.4h-10.1c-1.3,0-2.4,1.1-2.4,2.4v13.7
			c0,1.3,1.1,2.4,2.4,2.4h10.1c0.2,0,0.4,0.2,0.4,0.4v2.3h-10.6c-3,0-5.4-2.5-5.4-5.4V438.4z"/>
		<path class="st1" d="M463.2,441v2.3c0,0.2-0.2,0.4-0.4,0.4h-4c-0.9,0-1.5,0.7-1.5,1.4V457h-2.4c-0.2,0-0.4-0.2-0.4-0.4V441h2.4
			c0.2,0,0.4,0.1,0.4,0.3v0.7c0.4-0.5,1.2-1,2.2-1H463.2z"/>
		<path class="st2" d="M469,452.3v-6.8c0-3,2.1-4.5,4.7-4.5h4.3c2.6,0,4.7,1.6,4.7,4.5v3.7c0,0.5-0.1,1-0.8,1H473
			c-0.5,0-1-0.2-1.2-0.6v2.8c0,1.1,0.8,1.9,1.9,1.9h7.9c0.2,0,0.4,0.2,0.4,0.4v2.3h-8.3C471.1,457,469,454.9,469,452.3z
			 M471.8,445.5v1.7c0,0.2,0.1,0.3,0.3,0.4h7.5c0.2,0,0.4-0.2,0.4-0.4v-1.7c0-1.3-0.6-1.9-1.9-1.9h-4.4
			C472.6,443.6,471.8,444.2,471.8,445.5z"/>
		<path class="st1" d="M502.3,445.5V456c0,0.6-0.4,1-1,1h-7.5c-2.6,0-4.7-2.1-4.7-4.7v-1c0-2.6,2.1-4.7,4.7-4.7h5.4
			c0.2,0,0.4-0.2,0.4-0.4v-0.8c0-1-0.7-1.9-1.9-1.9h-6.4c-0.2,0-0.4-0.2-0.4-0.4V441h6.7C500.2,441,502.3,442.6,502.3,445.5z
			 M493.7,454.3h5.4c0.2,0,0.3-0.2,0.3-0.4v-5.1c-0.2,0.3-0.5,0.4-0.8,0.5h-4.9c-1.1,0-1.9,0.8-1.9,1.9v1.2
			C491.9,453.4,492.7,454.3,493.7,454.3z"/>
		<path class="st1" d="M517.1,454.7v2.3h-3.2c-2.6,0-4.7-2.1-4.7-4.7v-19.1h2.4c0.2,0,0.4,0.2,0.4,0.4v8c0.2-0.4,0.5-0.6,0.9-0.6
			h3.4v2.3c0,0.2-0.2,0.3-0.4,0.3h-4v8.8c0,1.1,0.8,1.9,1.9,1.9h2.9C517,454.3,517.1,454.5,517.1,454.7z"/>
		<path class="st3" d="M526,434.2v2.6h-2.4c-0.2,0-0.4-0.2-0.4-0.4v-2.6h2.4C525.9,433.8,526,434,526,434.2z M526,441.3V457h-2.4
			c-0.2,0-0.4-0.2-0.4-0.4V441h2.4C525.9,441,526,441.1,526,441.3z"/>
		<path class="st1" d="M531.6,441h2.7c0.2,0,0.3,0.1,0.4,0.3l4.4,11.4l4.4-11.4c0.1-0.2,0.2-0.3,0.4-0.3h2.7l-6.6,15.8
			c-0.1,0.2-0.2,0.3-0.4,0.3h-1.3c-0.2,0-0.3-0.1-0.4-0.3L531.6,441z"/>
	</g>
	<g class="st0">
		<path class="st4" d="M431.9,438.4c0-3,2.4-5.4,5.4-5.4h10.6v2.3c0,0.2-0.2,0.4-0.4,0.4h-10.1c-1.3,0-2.4,1.1-2.4,2.4v13.7
			c0,1.3,1.1,2.4,2.4,2.4h10.1c0.2,0,0.4,0.2,0.4,0.4v2.3h-10.6c-3,0-5.4-2.5-5.4-5.4V438.4z"/>
		<path class="st4" d="M463.2,441v2.3c0,0.2-0.2,0.4-0.4,0.4h-4c-0.9,0-1.5,0.7-1.5,1.4V457h-2.4c-0.2,0-0.4-0.2-0.4-0.4V441h2.4
			c0.2,0,0.4,0.1,0.4,0.3v0.7c0.4-0.5,1.2-1,2.2-1H463.2z"/>
		<path class="st4" d="M469,452.3v-6.8c0-3,2.1-4.5,4.7-4.5h4.3c2.6,0,4.7,1.6,4.7,4.5v3.7c0,0.5-0.1,1-0.8,1H473
			c-0.5,0-1-0.2-1.2-0.6v2.8c0,1.1,0.8,1.9,1.9,1.9h7.9c0.2,0,0.4,0.2,0.4,0.4v2.3h-8.3C471.1,457,469,454.9,469,452.3z
			 M471.8,445.5v1.7c0,0.2,0.1,0.3,0.3,0.4h7.5c0.2,0,0.4-0.2,0.4-0.4v-1.7c0-1.3-0.6-1.9-1.9-1.9h-4.4
			C472.6,443.6,471.8,444.2,471.8,445.5z"/>
		<path class="st4" d="M502.3,445.5V456c0,0.6-0.4,1-1,1h-7.5c-2.6,0-4.7-2.1-4.7-4.7v-1c0-2.6,2.1-4.7,4.7-4.7h5.4
			c0.2,0,0.4-0.2,0.4-0.4v-0.8c0-1-0.7-1.9-1.9-1.9h-6.4c-0.2,0-0.4-0.2-0.4-0.4V441h6.7C500.2,441,502.3,442.6,502.3,445.5z
			 M493.7,454.3h5.4c0.2,0,0.3-0.2,0.3-0.4v-5.1c-0.2,0.3-0.5,0.4-0.8,0.5h-4.9c-1.1,0-1.9,0.8-1.9,1.9v1.2
			C491.9,453.4,492.7,454.3,493.7,454.3z"/>
		<path class="st4" d="M517.1,454.7v2.3h-3.2c-2.6,0-4.7-2.1-4.7-4.7v-19.1h2.4c0.2,0,0.4,0.2,0.4,0.4v8c0.2-0.4,0.5-0.6,0.9-0.6
			h3.4v2.3c0,0.2-0.2,0.3-0.4,0.3h-4v8.8c0,1.1,0.8,1.9,1.9,1.9h2.9C517,454.3,517.1,454.5,517.1,454.7z"/>
		<path class="st5" d="M526,434.2v2.6h-2.4c-0.2,0-0.4-0.2-0.4-0.4v-2.6h2.4C525.9,433.8,526,434,526,434.2z M526,441.3V457h-2.4
			c-0.2,0-0.4-0.2-0.4-0.4V441h2.4C525.9,441,526,441.1,526,441.3z"/>
		<path class="st4" d="M531.6,441h2.7c0.2,0,0.3,0.1,0.4,0.3l4.4,11.4l4.4-11.4c0.1-0.2,0.2-0.3,0.4-0.3h2.7l-6.6,15.8
			c-0.1,0.2-0.2,0.3-0.4,0.3h-1.3c-0.2,0-0.3-0.1-0.4-0.3L531.6,441z"/>
	</g>
	<g class="st0">
		<path class="st6" d="M378,433v2.3c0,0.2-0.2,0.4-0.4,0.4h-6.8v20.9c0,0.2-0.2,0.4-0.4,0.4h-2.6v-21.3h-7.2v-2.3
			c0-0.2,0.2-0.4,0.4-0.4H378z"/>
		<path class="st6" d="M380.4,452.3v-6.8c0-3,2.1-4.5,4.7-4.5h4.3c2.6,0,4.7,1.6,4.7,4.5v3.7c0,0.5-0.1,1-0.8,1h-8.8
			c-0.5,0-1-0.2-1.2-0.6v2.8c0,1.1,0.8,1.9,1.9,1.9h7.9c0.2,0,0.4,0.2,0.4,0.4v2.3H385C382.4,457,380.4,454.9,380.4,452.3z
			 M383.1,445.5v1.7c0,0.2,0.1,0.3,0.3,0.4h7.5c0.2,0,0.4-0.2,0.4-0.4v-1.7c0-1.3-0.6-1.9-1.9-1.9H385
			C384,443.6,383.1,444.2,383.1,445.5z"/>
		<path class="st6" d="M403.8,433.4V457h-2.4c-0.2,0-0.4-0.2-0.4-0.4V433h2.4C403.6,433,403.8,433.2,403.8,433.4z"/>
		<path class="st6" d="M423.5,445.5V456c0,0.6-0.4,1-1,1H415c-2.6,0-4.7-2.1-4.7-4.7v-1c0-2.6,2.1-4.7,4.7-4.7h5.4
			c0.2,0,0.4-0.2,0.4-0.4v-0.8c0-1-0.7-1.9-1.9-1.9h-6.4c-0.2,0-0.4-0.2-0.4-0.4V441h6.7C421.4,441,423.5,442.6,423.5,445.5z
			 M415,454.3h5.4c0.2,0,0.3-0.2,0.3-0.4v-5.1c-0.2,0.3-0.5,0.4-0.8,0.5H415c-1.1,0-1.9,0.8-1.9,1.9v1.2
			C413.1,453.4,414,454.3,415,454.3z"/>
	</g>
	<g class="st0">
		<path class="st7" d="M378,433v2.3c0,0.2-0.2,0.4-0.4,0.4h-6.8v20.9c0,0.2-0.2,0.4-0.4,0.4h-2.6v-21.3h-7.2v-2.3
			c0-0.2,0.2-0.4,0.4-0.4H378z"/>
		<path class="st7" d="M380.4,452.3v-6.8c0-3,2.1-4.5,4.7-4.5h4.3c2.6,0,4.7,1.6,4.7,4.5v3.7c0,0.5-0.1,1-0.8,1h-8.8
			c-0.5,0-1-0.2-1.2-0.6v2.8c0,1.1,0.8,1.9,1.9,1.9h7.9c0.2,0,0.4,0.2,0.4,0.4v2.3H385C382.4,457,380.4,454.9,380.4,452.3z
			 M383.1,445.5v1.7c0,0.2,0.1,0.3,0.3,0.4h7.5c0.2,0,0.4-0.2,0.4-0.4v-1.7c0-1.3-0.6-1.9-1.9-1.9H385
			C384,443.6,383.1,444.2,383.1,445.5z"/>
		<path class="st7" d="M403.8,433.4V457h-2.4c-0.2,0-0.4-0.2-0.4-0.4V433h2.4C403.6,433,403.8,433.2,403.8,433.4z"/>
		<path class="st7" d="M423.5,445.5V456c0,0.6-0.4,1-1,1H415c-2.6,0-4.7-2.1-4.7-4.7v-1c0-2.6,2.1-4.7,4.7-4.7h5.4
			c0.2,0,0.4-0.2,0.4-0.4v-0.8c0-1-0.7-1.9-1.9-1.9h-6.4c-0.2,0-0.4-0.2-0.4-0.4V441h6.7C421.4,441,423.5,442.6,423.5,445.5z
			 M415,454.3h5.4c0.2,0,0.3-0.2,0.3-0.4v-5.1c-0.2,0.3-0.5,0.4-0.8,0.5H415c-1.1,0-1.9,0.8-1.9,1.9v1.2
			C413.1,453.4,414,454.3,415,454.3z"/>
	</g>
	<g class="st0">
		<path class="st6" d="M557.1,433.4v3.6l-2.7,1.1V433h2.2C556.9,433,557.1,433.2,557.1,433.4z"/>
	</g>
	<g class="st0">
		<path class="st7" d="M557.1,433.4v3.6l-2.7,1.1V433h2.2C556.9,433,557.1,433.2,557.1,433.4z"/>
	</g>
</g>
</svg>
